<svg width="127" height="29" xmlns="http://www.w3.org/2000/svg">
  <g fill="#003D4D" fill-rule="evenodd">
    <path d="M20.551 3.253c.743-.67 1.17-1.123 1.278-1.355.134-.328.33-.493.587-.493.27 0 .418.247.445.74l.446 7.164c0 .41-.018.66-.051.749-.034.088-.131.133-.294.133-.215 0-.445-.294-.688-.882-.891-2.183-2.133-3.968-3.726-5.358-1.606-1.383-3.348-2.074-5.224-2.074-1.648 0-3.16.537-4.536 1.612-1.377 1.074-2.446 2.607-3.21 4.599-.763 1.99-1.144 4.129-1.144 6.414 0 3.887 1.056 7.045 3.17 9.474 2.113 2.429 4.473 3.644 7.079 3.644 1.768 0 3.396-.568 4.882-1.704 1.485-1.135 2.606-2.45 3.363-3.942.201-.41.41-.615.626-.615.297 0 .446.164.446.493 0 .397-.513 1.266-1.539 2.606-1.026 1.342-2.373 2.43-4.041 3.264-1.667.835-3.46 1.252-5.377 1.252-2.255 0-4.399-.581-6.43-1.744-2.033-1.164-3.643-2.772-4.83-4.825C.592 20.353 0 17.945 0 15.18c0-2.71.577-5.153 1.733-7.328 1.155-2.177 2.78-3.867 4.875-5.071C8.7 1.576 10.863.974 13.092.974c1.19 0 2.405.188 3.648.564 1.243.376 2.514.949 3.811 1.715M43.579 13.693c0 2.177.34 4.41 1.025 6.7.684 2.291 1.757 3.953 3.22 4.989 1.463 1.035 3.028 1.552 4.696 1.552 2.694 0 4.851-1.28 6.47-3.837 1.622-2.556 2.431-5.518 2.431-8.883 0-3.258-.827-6.12-2.48-8.584-1.656-2.464-3.816-3.696-6.481-3.696-2.01 0-3.686.658-5.025 1.973-1.34 1.317-2.318 2.888-2.933 4.718-.616 1.83-.923 3.52-.923 5.068M39 14.344c0-1.8.562-3.78 1.683-5.934 1.123-2.156 2.763-3.933 4.918-5.335 2.156-1.4 4.59-2.1 7.3-2.1 3.792 0 6.922 1.32 9.393 3.962C64.765 7.579 66 10.595 66 13.984c0 3.602-1.369 6.835-4.106 9.698-2.738 2.862-6.03 4.292-9.876 4.292-3.683 0-6.772-1.253-9.27-3.762-2.5-2.508-3.748-5.798-3.748-9.868M95.778 3.682c.372-.361.62-.737.745-1.125.11-.322.269-.482.476-.482.11 0 .234.066.373.201.097.481.234 1.453.413 2.912l.497 3.777c0 .241-.152.361-.456.361-.164 0-.31-.133-.434-.4-.731-1.755-1.814-3.216-3.25-4.38-1.434-1.152-3-1.728-4.698-1.728-1.67 0-2.928.489-3.777 1.466-.849.978-1.273 2.016-1.273 3.114 0 1.34.463 2.364 1.387 3.073.925.71 2.829 1.515 5.712 2.412 2.125.642 3.716 1.265 4.771 1.868 1.056.603 1.943 1.446 2.66 2.53.717 1.086 1.076 2.251 1.076 3.497 0 2.116-.904 4.011-2.712 5.685-1.807 1.674-4.022 2.511-6.643 2.511-2.36 0-4.733-.716-7.12-2.15-.47.375-.773.818-.91 1.326-.11.429-.29.644-.539.644-.22 0-.379-.276-.476-.824-.096-.55-.296-3.148-.6-7.795.055-.16.2-.24.434-.24.208 0 .374.147.497.44 2.126 5.184 5.091 7.775 8.9 7.775 1.89 0 3.37-.552 4.44-1.657 1.07-1.105 1.604-2.374 1.604-3.807 0-.99-.287-1.901-.86-2.732-.572-.83-1.331-1.5-2.275-2.01-.946-.508-2.44-1.077-4.482-1.707-2.622-.817-4.404-1.59-5.35-2.32-.945-.73-1.639-1.553-2.08-2.47-.442-.918-.662-1.805-.662-2.662 0-1.782.831-3.363 2.494-4.742 1.662-1.38 3.702-2.069 6.115-2.069.912 0 1.867.14 2.867.422 1.001.281 2.045.71 3.136 1.286M116.434.974l3.763.082 5.77-.082c.689 0 1.033.136 1.033.41 0 .203-.186.333-.558.387-1.526.19-2.48.735-2.857 1.634-.378.898-.569 4.221-.569 9.967 0 2.11.056 4.486.166 7.128.11 2.64.234 4.22.37 4.738.14.517.4.939.785 1.266.386.327 1.101.558 2.148.694.344.04.515.17.515.388 0 .245-.159.369-.476.369l-5.128-.041-4.363.06c-.482 0-.723-.136-.723-.408 0-.285.193-.428.578-.428 1.28-.028 2.028-.45 2.25-1.267.219-.817.33-3.425.33-7.823 0-4.248-.038-7.686-.115-10.314-.075-2.627-.3-4.234-.67-4.82-.371-.585-1.073-.952-2.105-1.102-.385-.069-.578-.225-.578-.47 0-.246.144-.368.434-.368"/>
  </g>
</svg>
